# xmcd CD database file
#
# Track frame offsets:
#	150
#	14680
#	30856
#	36962
#	54280
#	78878
#	94574
#	117037
#	138334
#	158134
#	179493
#	206609
#
# Disc length: 3100 seconds
#
# Revision: 0
# Processed by: cddbd v1.5.2PL0 Copyright (c) Steve Scherf et al.
# Submitted via: CDex 1.70beta2
#
DISCID=8d0c1a0c
DTITLE=Billy C Farlow - You Better Run
DYEAR=2011
DGENRE=Country
TTITLE0=Drive Me Like A Mule
TTITLE1=You Better Run
TTITLE2=Don't You Wanna' Rock?
TTITLE3=Good Rockin' Mama
TTITLE4=Don't It Get Lonely?
TTITLE5=Hey, Nannie May!
TTITLE6=Whiskey And Beer, Gin And Wine
TTITLE7=Waitin' For The Sun To Go Down
TTITLE8=Good Whiskey, Bad Women
TTITLE9=Drunk On Love
TTITLE10=Juke House Woman
TTITLE11=Roll, Mississippi, Roll
EXTD=YEAR: 2011
EXTT0=
EXTT1=
EXTT2=
EXTT3=
EXTT4=
EXTT5=
EXTT6=
EXTT7=
EXTT8=
EXTT9=
EXTT10=
EXTT11=
PLAYORDER=
